<svg width="32" height="32" viewBox="0 0 32 32" fill="none" xmlns="http://www.w3.org/2000/svg">
  <path d="M0 7.11111C0 3.18375 3.18375 0 7.11111 0H24.8889C28.8162 0 32 3.18375 32 7.11111V24.8889C32 28.8162 28.8162 32 24.8889 32H7.11111C3.18375 32 0 28.8162 0 24.8889V7.11111Z" fill="url(#paint0_linear_605_4551)"/>
  <g opacity="0.05">
    <path fill-rule="evenodd" clip-rule="evenodd" d="M16.861 15.1599C18.6579 15.1599 19.3726 15.7611 19.3726 16.4868C19.3726 17.1916 18.6579 17.8137 17.106 17.8137C15.7684 17.8137 14.2756 17.2648 13.3147 16.008C14.2945 15.4602 15.5021 15.1599 16.861 15.1599ZM22.9356 21.0661C22.2246 21.0661 21.7942 21.4577 21.1284 22.3269C19.6568 24.2479 17.859 25.3514 15.3294 25.3303C12.3352 25.3094 10.2497 23.4645 10.2497 20.5504C10.2497 19.5306 10.5818 18.5458 11.1841 17.6988C12.55 19.377 14.5741 20.3618 16.8573 20.3618C20.5948 20.3618 22.2055 18.3912 22.1847 16.3576C22.1641 14.0725 20.4916 12.4163 16.9812 12.4163C15.3614 12.4163 13.8209 12.7431 12.4588 13.3341C12.4491 13.2322 12.4416 13.1293 12.4385 13.0243C12.4385 10.6762 14.2556 9.12494 16.9812 9.12494C17.3322 9.12494 17.5801 9.14589 17.8484 9.14589C18.8881 9.14589 19.4593 8.56516 19.4593 7.72025C19.4593 6.85928 18.8809 6.16895 16.8987 6.16895C12.5624 6.16895 9.40308 9.08306 9.38245 13.0034C9.39388 13.8786 9.48245 14.5653 9.6403 15.1758C8.07434 16.6584 7.11108 18.6495 7.11108 20.9279C7.11108 25.5819 10.4974 28.3912 15.1849 28.3912C18.8986 28.3912 22.0309 26.593 23.8301 23.7616C24.1437 23.2681 24.2539 22.8534 24.2539 22.3961C24.2539 21.7202 23.773 21.0661 22.9356 21.0661Z" fill="black"/>
  </g>
  <g opacity="0.05">
    <path fill-rule="evenodd" clip-rule="evenodd" d="M16.861 14.7331C18.6579 14.7331 19.3726 15.3343 19.3726 16.0601C19.3726 16.7649 18.6579 17.3869 17.106 17.3869C15.7684 17.3869 14.2756 16.838 13.3147 15.5812C14.2945 15.0335 15.5021 14.7331 16.861 14.7331ZM22.9356 20.6393C22.2246 20.6393 21.7942 21.031 21.1284 21.9001C19.6568 23.8211 17.859 24.9246 15.3294 24.9036C12.3352 24.8826 10.2497 23.0378 10.2497 20.1237C10.2497 19.1038 10.5818 18.119 11.1841 17.2721C12.55 18.9503 14.5741 19.9351 16.8573 19.9351C20.5948 19.9351 22.2055 17.9644 22.1847 15.9309C22.1641 13.6458 20.4916 11.9895 16.9812 11.9895C15.3614 11.9895 13.8209 12.3163 12.4588 12.9074C12.4491 12.8054 12.4416 12.7025 12.4385 12.5976C12.4385 10.2495 14.2556 8.69818 16.9812 8.69818C17.3322 8.69818 17.5801 8.71913 17.8484 8.71913C18.8881 8.71913 19.4593 8.1384 19.4593 7.29349C19.4593 6.43253 18.8809 5.74219 16.8987 5.74219C12.5624 5.74219 9.40308 8.6563 9.38245 12.5766C9.39388 13.4518 9.48245 14.1385 9.6403 14.749C8.07434 16.2316 7.11108 18.2227 7.11108 20.5011C7.11108 25.1551 10.4974 27.9644 15.1849 27.9644C18.8986 27.9644 22.0309 26.1662 23.8301 23.3349C24.1437 22.8413 24.2539 22.4267 24.2539 21.9693C24.2539 21.2934 23.773 20.6393 22.9356 20.6393Z" fill="black"/>
  </g>
  <g opacity="0.05">
    <path fill-rule="evenodd" clip-rule="evenodd" d="M16.861 14.3073C18.6579 14.3073 19.3726 14.9085 19.3726 15.6343C19.3726 16.3391 18.6579 16.9611 17.106 16.9611C15.7684 16.9611 14.2756 16.4123 13.3147 15.1554C14.2945 14.6077 15.5021 14.3073 16.861 14.3073ZM22.9356 20.2135C22.2246 20.2135 21.7942 20.6052 21.1284 21.4743C19.6568 23.3953 17.859 24.4989 15.3294 24.4778C12.3352 24.4569 10.2497 22.612 10.2497 19.6979C10.2497 18.678 10.5818 17.6932 11.1841 16.8463C12.55 18.5245 14.5741 19.5093 16.8573 19.5093C20.5948 19.5093 22.2055 17.5387 22.1847 15.5051C22.1641 13.22 20.4916 11.5637 16.9812 11.5637C15.3614 11.5637 13.8209 11.8905 12.4588 12.4816C12.4491 12.3796 12.4416 12.2767 12.4385 12.1718C12.4385 9.82371 14.2556 8.2724 16.9812 8.2724C17.3322 8.2724 17.5801 8.29335 17.8484 8.29335C18.8881 8.29335 19.4593 7.71262 19.4593 6.86771C19.4593 6.00675 18.8809 5.31641 16.8987 5.31641C12.5624 5.31641 9.40308 8.23052 9.38245 12.1508C9.39388 13.026 9.48245 13.7127 9.6403 14.3233C8.07434 15.8058 7.11108 17.7969 7.11108 20.0753C7.11108 24.7294 10.4974 27.5386 15.1849 27.5386C18.8986 27.5386 22.0309 25.7404 23.8301 22.9091C24.1437 22.4155 24.2539 22.0009 24.2539 21.5435C24.2539 20.8677 23.773 20.2135 22.9356 20.2135Z" fill="black"/>
  </g>
  <path fill-rule="evenodd" clip-rule="evenodd" d="M16.861 13.8806C18.6579 13.8806 19.3726 14.4818 19.3726 15.2075C19.3726 15.9123 18.6579 16.5344 17.106 16.5344C15.7684 16.5344 14.2756 15.9855 13.3147 14.7287C14.2945 14.181 15.5021 13.8806 16.861 13.8806ZM22.9356 19.7868C22.2246 19.7868 21.7942 20.1784 21.1284 21.0476C19.6568 22.9686 17.859 24.0721 15.3294 24.051C12.3352 24.0301 10.2497 22.1852 10.2497 19.2711C10.2497 18.2513 10.5818 17.2665 11.1841 16.4195C12.55 18.0977 14.5741 19.0825 16.8573 19.0825C20.5948 19.0825 22.2055 17.1119 22.1847 15.0783C22.1641 12.7932 20.4916 11.137 16.9812 11.137C15.3614 11.137 13.8209 11.4638 12.4588 12.0548C12.4491 11.9529 12.4416 11.85 12.4385 11.745C12.4385 9.39695 14.2556 7.84565 16.9812 7.84565C17.3322 7.84565 17.5801 7.86659 17.8484 7.86659C18.8881 7.86659 19.4593 7.28586 19.4593 6.44095C19.4593 5.57999 18.8809 4.88965 16.8987 4.88965C12.5624 4.88965 9.40308 7.80376 9.38245 11.7241C9.39388 12.5993 9.48245 13.286 9.6403 13.8965C8.07434 15.3791 7.11108 17.3702 7.11108 19.6486C7.11108 24.3026 10.4974 27.1119 15.1849 27.1119C18.8986 27.1119 22.0309 25.3137 23.8301 22.4823C24.1437 21.9888 24.2539 21.5741 24.2539 21.1168C24.2539 20.4409 23.773 19.7868 22.9356 19.7868Z" fill="white"/>
  <defs>
    <linearGradient id="paint0_linear_605_4551" x1="16" y1="0" x2="16" y2="32" gradientUnits="userSpaceOnUse">
      <stop stop-color="#93A2E5"/>
      <stop offset="0.700813" stop-color="#454E9E"/>
    </linearGradient>
  </defs>
</svg>
