<svg width="32" height="32" viewBox="0 0 32 32" fill="none" xmlns="http://www.w3.org/2000/svg">
  <g clip-path="url(#clip0_614_4571)">
    <path d="M0 7.1111C0 3.18375 3.18375 0 7.1111 0H24.8889C28.8163 0 32 3.18375 32 7.1111V24.8889C32 28.8163 28.8163 32 24.8889 32H7.1111C3.18375 32 0 28.8163 0 24.8889V7.1111Z" fill="url(#paint0_linear_614_4571)"/>
    <path d="M13.3333 4.03125C13.3333 4.3125 13.3333 4.87953 13.3333 5.12499C13.3333 5.37045 13.5322 5.56943 13.7777 5.56943H18.2221C18.4676 5.56943 18.6666 5.37045 18.6666 5.12499C18.6666 4.87953 18.6666 4.40625 18.6666 4.03125H13.3333Z" fill="black" fill-opacity="0.05"/>
    <path fill-rule="evenodd" clip-rule="evenodd" d="M26.6666 17.125C26.6666 23.016 21.891 27.7917 15.9999 27.7917C10.1089 27.7917 5.33326 23.016 5.33326 17.125C5.33326 16.5181 5.33325 16.0938 5.33325 15.4062C6.18104 10.3631 10.7158 6.45832 15.9999 6.45832C21.5324 6.45832 26.1334 10.7015 26.6666 16.0938C26.6666 16.5312 26.6666 16.7664 26.6666 17.125ZM15.5555 13.5694C15.8009 13.5694 15.9999 13.7684 15.9999 14.0139V17.3816L18.2498 18.6805C18.4624 18.8033 18.5352 19.0751 18.4125 19.2877C18.2897 19.5002 18.0179 19.5731 17.8053 19.4503L15.4959 18.117C15.4258 18.0765 15.3709 18.0198 15.3332 17.9544C15.2004 17.8775 15.111 17.7339 15.111 17.5694V14.0139C15.111 13.7684 15.31 13.5694 15.5555 13.5694ZM15.9999 9.12499C15.9999 9.37045 15.8005 9.56807 15.5554 9.58229C11.5895 9.81236 8.44437 13.1014 8.44437 17.125C8.44437 21.2978 11.8271 24.6805 15.9999 24.6805C18.4682 24.6805 20.6603 23.4973 22.0397 21.6653C22.1873 21.4692 22.4622 21.4128 22.6666 21.5487C22.871 21.6846 22.9274 21.9613 22.781 22.1583C21.2426 24.2275 18.7781 25.5694 15.9999 25.5694C11.3362 25.5694 7.55548 21.7887 7.55548 17.125C7.55548 12.6103 11.0984 8.9231 15.5556 8.69203C15.8007 8.67932 15.9999 8.87953 15.9999 9.12499Z" fill="black" fill-opacity="0.05"/>
    <path d="M13.3333 4.03125C13.3333 4.3125 13.3333 4.56703 13.3333 4.81249C13.3333 5.05795 13.5322 5.25693 13.7777 5.25693H18.2221C18.4676 5.25693 18.6666 5.05795 18.6666 4.81249C18.6666 4.56703 18.6666 4.3125 18.6666 4.03125H13.3333Z" fill="black" fill-opacity="0.05"/>
    <path fill-rule="evenodd" clip-rule="evenodd" d="M26.6666 16.8125C26.6666 22.7035 21.891 27.4792 15.9999 27.4792C10.1089 27.4792 5.33325 22.7035 5.33325 16.8125C5.33325 10.9214 10.1089 6.14582 15.9999 6.14582C21.5537 6.14582 26.1625 10.5779 26.6666 16C26.6666 16.3438 26.6666 16.4753 26.6666 16.8125ZM15.5555 13.2569C15.8009 13.2569 15.9999 13.4559 15.9999 13.7014V17.0691L18.2498 18.368C18.4624 18.4908 18.5352 18.7626 18.4125 18.9752C18.2897 19.1877 18.0179 19.2606 17.8053 19.1378L15.4959 17.8045C15.4258 17.764 15.3709 17.7073 15.3332 17.6419C15.2004 17.565 15.111 17.4214 15.111 17.2569V13.7014C15.111 13.4559 15.31 13.2569 15.5555 13.2569ZM15.9999 8.81249C15.9999 9.05795 15.8005 9.25557 15.5554 9.26979C11.5895 9.49986 8.44436 12.7889 8.44436 16.8125C8.44436 20.9853 11.8271 24.368 15.9999 24.368C18.4682 24.368 20.6603 23.1848 22.0397 21.3528C22.1873 21.1567 22.4622 21.1003 22.6666 21.2362C22.871 21.3721 22.9274 21.6488 22.781 21.8458C21.2426 23.915 18.7781 25.2569 15.9999 25.2569C11.3362 25.2569 7.55547 21.4762 7.55547 16.8125C7.55547 12.2978 11.0984 8.6106 15.5556 8.37953C15.8007 8.36682 15.9999 8.56703 15.9999 8.81249Z" fill="black" fill-opacity="0.05"/>
    <path d="M13.3333 3.99316C13.3333 4.28137 13.3333 4.19215 13.3333 4.43761C13.3333 4.68307 13.5322 4.88205 13.7777 4.88205H18.2221C18.4676 4.88205 18.6666 4.68307 18.6666 4.43761C18.6666 4.19215 18.6666 4.15637 18.6666 3.99316H13.3333Z" fill="black" fill-opacity="0.05"/>
    <path fill-rule="evenodd" clip-rule="evenodd" d="M26.6666 16.4376C26.6666 22.3286 21.891 27.1043 15.9999 27.1043C10.1089 27.1043 5.33325 22.3286 5.33325 16.4376C5.33325 10.5466 10.1089 5.77094 15.9999 5.77094C21.3927 5.77094 25.951 10.7416 26.6666 15.9376C26.6666 16.2501 26.6666 15.9393 26.6666 16.4376ZM15.5555 12.8821C15.8009 12.8821 15.9999 13.081 15.9999 13.3265V16.6942L18.2498 17.9932C18.4624 18.1159 18.5352 18.3877 18.4125 18.6003C18.2897 18.8129 18.0179 18.8857 17.8053 18.763L15.4959 17.4296C15.4258 17.3892 15.3709 17.3325 15.3332 17.267C15.2004 17.1902 15.111 17.0465 15.111 16.8821V13.3265C15.111 13.081 15.31 12.8821 15.5555 12.8821ZM15.9999 8.43761C15.9999 8.68307 15.8005 8.88069 15.5554 8.89491C11.5895 9.12498 8.44436 12.414 8.44436 16.4376C8.44436 20.6104 11.8271 23.9932 15.9999 23.9932C18.4682 23.9932 20.6603 22.8099 22.0397 20.978C22.1873 20.7819 22.4622 20.7254 22.6666 20.8613C22.871 20.9972 22.9274 21.2739 22.781 21.4709C21.2426 23.5402 18.7781 24.8821 15.9999 24.8821C11.3362 24.8821 7.55547 21.1013 7.55547 16.4376C7.55547 11.9229 11.0984 8.23572 15.5556 8.00465C15.8007 7.99195 15.9999 8.19215 15.9999 8.43761Z" fill="black" fill-opacity="0.05"/>
    <path d="M13.7777 3.55566C13.5322 3.55566 13.3333 3.75465 13.3333 4.00011C13.3333 4.24557 13.5322 4.44455 13.7777 4.44455H18.2221C18.4676 4.44455 18.6666 4.24557 18.6666 4.00011C18.6666 3.75465 18.4676 3.55566 18.2221 3.55566H13.7777Z" fill="white"/>
    <path fill-rule="evenodd" clip-rule="evenodd" d="M26.6666 16.0001C26.6666 21.8911 21.891 26.6668 15.9999 26.6668C10.1089 26.6668 5.33325 21.8911 5.33325 16.0001C5.33325 10.1091 10.1089 5.33344 15.9999 5.33344C21.891 5.33344 26.6666 10.1091 26.6666 16.0001ZM15.5555 12.4446C15.8009 12.4446 15.9999 12.6435 15.9999 12.889V16.2567L18.2498 17.5557C18.4624 17.6784 18.5352 17.9502 18.4125 18.1628C18.2897 18.3754 18.0179 18.4482 17.8053 18.3255L15.4959 16.9921C15.4258 16.9517 15.3709 16.895 15.3332 16.8295C15.2004 16.7527 15.111 16.609 15.111 16.4446V12.889C15.111 12.6435 15.31 12.4446 15.5555 12.4446ZM15.9999 8.00011C15.9999 8.24557 15.8005 8.44319 15.5554 8.45741C11.5895 8.68748 8.44436 11.9765 8.44436 16.0001C8.44436 20.1729 11.8271 23.5557 15.9999 23.5557C18.4682 23.5557 20.6603 22.3724 22.0397 20.5405C22.1873 20.3444 22.4622 20.2879 22.6666 20.4238C22.871 20.5597 22.9274 20.8364 22.781 21.0334C21.2426 23.1027 18.7781 24.4446 15.9999 24.4446C11.3362 24.4446 7.55547 20.6638 7.55547 16.0001C7.55547 11.4854 11.0984 7.79822 15.5556 7.56715C15.8007 7.55445 15.9999 7.75465 15.9999 8.00011Z" fill="white"/>
  </g>
  <defs>
    <linearGradient id="paint0_linear_614_4571" x1="16" y1="0" x2="16" y2="32" gradientUnits="userSpaceOnUse">
      <stop stop-color="#FF3800"/>
      <stop offset="1" stop-color="#F0389F"/>
    </linearGradient>
    <clipPath id="clip0_614_4571">
      <rect width="32" height="32" fill="white"/>
    </clipPath>
  </defs>
</svg>
