<svg width="32" height="32" viewBox="0 0 32 32" fill="none" xmlns="http://www.w3.org/2000/svg">
<g clip-path="url(#clip0_5547_23845)">
<path d="M0 7.11111C0 3.18375 3.18375 0 7.11111 0H24.8889C28.8162 0 32 3.18375 32 7.11111V24.8889C32 28.8162 28.8162 32 24.8889 32H7.11111C3.18375 32 0 28.8162 0 24.8889V7.11111Z" fill="url(#paint0_linear_5547_23845)"/>
<path fill-rule="evenodd" clip-rule="evenodd" d="M6.22222 6.22222C5.24038 6.22222 4.44444 7.01816 4.44444 8V18.2222C4.44444 19.2041 5.24038 20 6.22222 20H7.55555V18.1037C7.55555 17.1219 8.35149 16.3259 9.33333 16.3259H15.5556V10.51L13.4858 12.5797C13.3123 12.7533 13.0309 12.7533 12.8573 12.5797C12.6837 12.4062 12.6837 12.1248 12.8573 11.9512L15.6857 9.12277C15.8593 8.9492 16.1407 8.9492 16.3143 9.12277L19.1427 11.9512C19.3163 12.1248 19.3163 12.4062 19.1427 12.5797C18.9691 12.7533 18.6877 12.7533 18.5142 12.5797L16.4444 10.51V16.3259H22.6667C23.6485 16.3259 24.4444 17.1219 24.4444 18.1037V20H25.7778C26.7596 20 27.5556 19.2041 27.5556 18.2222V8C27.5556 7.01816 26.7596 6.22222 25.7778 6.22222H6.22222ZM9.77778 18.6667H22.2222V25.7778H9.77778V18.6667ZM8.88889 18.6667C8.88889 18.1757 9.28686 17.7778 9.77778 17.7778H22.2222C22.7131 17.7778 23.1111 18.1757 23.1111 18.6667V25.7778C23.1111 26.2687 22.7131 26.6667 22.2222 26.6667H9.77778C9.28686 26.6667 8.88889 26.2687 8.88889 25.7778V18.6667Z" fill="white"/>
</g>
<defs>
<linearGradient id="paint0_linear_5547_23845" x1="16" y1="0" x2="16" y2="32" gradientUnits="userSpaceOnUse">
<stop stop-color="#81C2F1"/>
<stop offset="1" stop-color="#02538F"/>
</linearGradient>
<clipPath id="clip0_5547_23845">
<rect width="32" height="32" fill="white"/>
</clipPath>
</defs>
</svg>
