<svg width="32" height="31" viewBox="0 0 32 31" fill="none" xmlns="http://www.w3.org/2000/svg">
  <g clip-path="url(#clip0_614_4563)">
    <path d="M0.5 6.88889C0.5 3.08426 3.58426 0 7.38889 0H24.6111C28.4157 0 31.5 3.08426 31.5 6.88889V24.1111C31.5 27.9157 28.4157 31 24.6111 31H7.38889C3.58426 31 0.5 27.9157 0.5 24.1111V6.88889Z" fill="url(#paint0_linear_614_4563)"/>
    <path fill-rule="evenodd" clip-rule="evenodd" d="M25.1571 6.98563L26.6486 6.99908C27.0605 7.23687 27.2016 8.61118 26.9638 9.02304L21.0664 19.2377C20.9814 19.3849 20.8547 19.5037 20.7023 19.579L18.7318 20.5533C18.4564 20.6895 18.1311 20.5017 18.1113 20.1951L17.9698 18.0014C17.9589 17.8318 17.9984 17.6627 18.0834 17.5154L23.9808 7.30082C24.2186 6.88895 24.7452 6.74784 25.1571 6.98563ZM24.6112 16.5423V22.1335C24.6112 22.6091 24.2256 22.7524 23.7501 22.7524H8.25005C7.77448 22.7524 7.38894 22.6091 7.38894 22.1335V10.6834C7.38894 10.2078 7.77448 9.8223 8.25005 9.8223H20.5364L21.0335 8.11354H8.25005C7.2989 8.11354 6.52783 9.73226 6.52783 10.6834V22.739C6.52783 23.6901 7.2989 24.4612 8.25005 24.4612H23.7501C24.7012 24.4612 25.4723 23.6901 25.4723 22.739V15.0509L24.6112 16.5423ZM9.78867 13.3446C9.98347 13.4809 10.0308 13.7494 9.89446 13.9442C9.6558 14.2851 9.51154 14.6166 9.55792 15.06C9.63614 15.8077 10.2715 15.698 11.0563 15.9565C11.4433 16.0841 11.8397 16.1415 12.2139 16.1138C12.1991 15.8535 12.205 15.8343 12.2331 15.5777C12.2759 15.1885 12.3888 15.2231 12.7679 14.8393C12.9908 14.6135 13.2998 14.5011 13.5883 14.4812C13.877 14.4614 14.2075 14.5305 14.4631 14.749C14.9359 15.153 14.8236 15.7405 14.683 16.0963C14.5324 16.4776 14.269 16.8296 14.078 17.0213C13.8057 17.2945 13.4992 17.4889 13.1752 17.6184C13.203 17.7377 13.2359 17.8552 13.2738 17.9699C13.6377 19.0716 14.4468 19.2786 15.468 19.4757C15.9061 19.5602 16.3502 19.3389 16.7492 19.2525C16.9816 19.2022 17.2515 19.5969 17.3018 19.8293C17.3521 20.0617 17.3018 20.7678 16.9315 20.9418C16.3826 21.0607 15.8141 21.0249 15.3049 20.9266C13.9129 20.6581 12.8954 19.5698 12.4561 18.2399C12.4104 18.1013 12.3705 17.9593 12.3368 17.8149C11.8067 17.8624 11.2689 17.7809 10.7868 17.6221C9.88596 17.3252 8.83301 16.6491 8.70148 15.3917C8.63473 14.7537 8.82487 13.9706 9.18903 13.4504C9.32541 13.2556 9.59387 13.2082 9.78867 13.3446ZM13.0673 16.4742C13.2117 16.3939 13.3463 15.9301 13.468 15.808C13.5911 15.6845 13.7817 15.4286 13.8821 15.1744C13.9926 14.8947 13.9285 15.4248 13.9037 15.4036C13.8603 15.3665 13.771 15.3318 13.6474 15.3403C13.5235 15.3488 13.4274 15.3969 13.3805 15.4444C13.2217 15.6052 13.129 15.9134 13.0891 16.2772C13.0732 16.4215 13.0661 16.3263 13.0673 16.4742Z" fill="black" fill-opacity="0.04"/>
    <path fill-rule="evenodd" clip-rule="evenodd" d="M25.1571 6.62235L26.6486 6.87799C27.0605 7.11578 27.2016 8.24789 26.9638 8.65976L21.0664 18.8744C20.9814 19.0216 20.8547 19.1404 20.7023 19.2157L18.7318 20.19C18.4564 20.3262 18.1311 20.1384 18.1113 19.8318L17.9698 17.6381C17.9589 17.4685 17.9984 17.2994 18.0834 17.1522L23.9808 6.93754C24.2186 6.52567 24.7452 6.38456 25.1571 6.62235ZM24.6112 16.1791V21.7702C24.6112 22.2458 24.2256 22.6313 23.7501 22.6313H8.25005C7.77448 22.6313 7.38894 22.2458 7.38894 21.7702V10.3201C7.38894 9.84456 7.77448 9.45902 8.25005 9.45902H20.5364L21.0335 7.99244H8.25005C7.2989 7.99244 6.52783 9.36898 6.52783 10.3201V22.3757C6.52783 23.3268 7.2989 24.0979 8.25005 24.0979H23.7501C24.7012 24.0979 25.4723 23.3268 25.4723 22.3757V14.6876L24.6112 16.1791ZM9.78867 12.9813C9.98347 13.1177 10.0308 13.3861 9.89446 13.5809C9.6558 13.9219 9.51154 14.4955 9.55792 14.9389C9.63614 15.6866 10.2715 15.5769 11.0563 15.8355C11.4433 15.963 11.8397 16.0204 12.2139 15.9927C12.1991 15.7324 12.205 15.4711 12.2331 15.2144C12.2759 14.8252 12.3888 14.8598 12.7679 14.476C12.9908 14.2502 13.2998 14.1378 13.5883 14.118C13.877 14.0981 14.2075 14.1672 14.4631 14.3857C14.9359 14.7897 14.8236 15.3772 14.683 15.733C14.5324 16.1143 14.269 16.4663 14.078 16.658C13.8057 16.9312 13.4992 17.1256 13.1752 17.2551C13.203 17.3744 13.2359 17.4919 13.2738 17.6066C13.6377 18.7083 14.4468 18.9153 15.468 19.1124C15.9061 19.1969 16.4487 19.4314 16.8477 19.345C17.0801 19.2946 17.2515 19.5364 17.3018 19.7688C17.3521 20.0012 17.1639 20.5282 16.9315 20.5785C16.3826 20.6974 15.8141 20.6616 15.3049 20.5634C13.9129 20.2948 12.8954 19.2065 12.4561 17.8767C12.4104 17.7381 12.3705 17.596 12.3368 17.4516C11.8067 17.4991 11.2689 17.4176 10.7868 17.2588C9.88596 16.9619 8.83301 16.2858 8.70148 15.0285C8.63473 14.3904 8.82487 13.6073 9.18903 13.0871C9.32541 12.8923 9.59387 12.8449 9.78867 12.9813ZM13.0673 16.3531C13.2117 16.2728 13.3463 15.5668 13.468 15.4447C13.5911 15.3212 13.7817 15.0653 13.8821 14.8111C13.9926 14.5315 13.9285 15.0615 13.9037 15.0403C13.8603 15.0032 13.771 14.9685 13.6474 14.977C13.5235 14.9856 13.4274 15.0337 13.3805 15.0811C13.2217 15.2419 13.129 15.5501 13.0891 15.9139C13.0732 16.0583 13.0661 16.2052 13.0673 16.3531Z" fill="black" fill-opacity="0.04"/>
    <path fill-rule="evenodd" clip-rule="evenodd" d="M25.1571 6.19852L26.6486 7.05963C27.0605 7.29742 27.2016 7.82407 26.9638 8.23593L21.0664 18.4506C20.9814 18.5978 20.8547 18.7166 20.7023 18.7919L18.7318 19.7662C18.4564 19.9024 18.1311 19.7146 18.1113 19.408L17.9698 17.2143C17.9589 17.0447 17.9984 16.8756 18.0834 16.7283L23.9808 6.51371C24.2186 6.10184 24.7452 5.96073 25.1571 6.19852ZM24.6112 15.7552V21.9519C24.6112 22.4274 24.2256 22.813 23.7501 22.813H8.25005C7.77448 22.813 7.38894 22.4274 7.38894 21.9519V9.89631C7.38894 9.42073 7.77448 9.03519 8.25005 9.03519H20.5364L21.0335 8.17408H8.25005C7.2989 8.17408 6.52783 8.94515 6.52783 9.89631V21.9519C6.52783 22.903 7.2989 23.6741 8.25005 23.6741H23.7501C24.7012 23.6741 25.4723 22.903 25.4723 21.9519V14.2637L24.6112 15.7552ZM9.78867 12.5575C9.98347 12.6938 10.0308 12.9623 9.89446 13.1571C9.6558 13.498 9.51154 14.0717 9.55792 14.515C9.63614 15.2628 10.2715 15.7585 11.0563 16.0171C11.4433 16.1446 11.8397 16.2021 12.2139 16.1744C12.1991 15.914 12.205 15.6527 12.2331 15.3961C12.2759 15.0068 12.3888 14.436 12.7679 14.0521C12.9908 13.8264 13.2998 13.714 13.5883 13.6941C13.877 13.6743 14.2075 13.7434 14.4631 13.9619C14.9359 14.3659 14.8236 14.9534 14.683 15.3092C14.5324 15.6904 14.269 16.0424 14.078 16.2342C13.8057 16.5074 13.4992 16.7018 13.1752 16.8313C13.203 16.9506 13.2359 17.0681 13.2738 17.1828C13.6377 18.2845 14.4468 19.097 15.468 19.294C15.9061 19.3785 16.3502 19.3995 16.7492 19.3131C16.9816 19.2627 17.2108 19.4103 17.2611 19.6427C17.3115 19.8751 17.1639 20.1043 16.9315 20.1547C16.3826 20.2736 15.8141 20.2378 15.3049 20.1395C13.9129 19.871 12.8954 18.7827 12.4561 17.4528C12.4104 17.3142 12.3705 17.1722 12.3368 17.0278C11.8067 17.0753 11.2689 16.9938 10.7868 16.8349C9.88596 16.5381 8.83301 15.862 8.70148 14.6046C8.63473 13.9666 8.82487 13.1835 9.18903 12.6633C9.3254 12.4685 9.59387 12.4211 9.78867 12.5575ZM13.0673 15.9292C13.2117 15.8489 13.3463 15.7485 13.468 15.6264C13.5911 15.5029 13.7817 15.2469 13.8821 14.9928C13.9926 14.7131 13.9285 14.6377 13.9037 14.6165C13.8603 14.5794 13.771 14.5447 13.6474 14.5532C13.5235 14.5617 13.4274 14.6098 13.3805 14.6572C13.2217 14.8181 13.129 15.1263 13.0891 15.4901C13.0732 15.6344 13.0661 15.7814 13.0673 15.9292Z" fill="black" fill-opacity="0.04"/>
    <path fill-rule="evenodd" clip-rule="evenodd" d="M25.1571 5.77469L26.6486 6.6358C27.0605 6.87359 27.2016 7.40024 26.9638 7.8121L21.0664 18.0267C20.9814 18.174 20.8547 18.2927 20.7023 18.3681L18.7318 19.3424C18.4564 19.4786 18.1311 19.2907 18.1113 18.9841L17.9698 16.7905C17.9589 16.6208 17.9984 16.4517 18.0834 16.3045L23.9808 6.08988C24.2186 5.67802 24.7452 5.5369 25.1571 5.77469ZM24.6112 15.3314V21.528C24.6112 22.0036 24.2256 22.3891 23.7501 22.3891H8.25005C7.77448 22.3891 7.38894 22.0036 7.38894 21.528V9.47248C7.38894 8.9969 7.77448 8.61137 8.25005 8.61137H20.5364L21.0335 7.75026H8.25005C7.2989 7.75026 6.52783 8.52132 6.52783 9.47248V21.528C6.52783 22.4792 7.2989 23.2503 8.25005 23.2503H23.7501C24.7012 23.2503 25.4723 22.4792 25.4723 21.528V13.8399L24.6112 15.3314ZM9.78867 12.1336C9.98347 12.27 10.0308 12.5385 9.89446 12.7333C9.6558 13.0742 9.51154 13.6479 9.55792 14.0912C9.63614 14.8389 10.2715 15.3347 11.0563 15.5933C11.4433 15.7208 11.8397 15.7782 12.2139 15.7506C12.1991 15.4902 12.205 15.2289 12.2331 14.9723C12.2759 14.583 12.3888 14.0122 12.7679 13.6283C12.9908 13.4026 13.2998 13.2901 13.5883 13.2703C13.877 13.2504 14.2075 13.3196 14.4631 13.538C14.9359 13.942 14.8236 14.5296 14.683 14.8854C14.5324 15.2666 14.269 15.6186 14.078 15.8104C13.8057 16.0835 13.4992 16.278 13.1752 16.4074C13.203 16.5268 13.2359 16.6443 13.2738 16.7589C13.6377 17.8607 14.4468 18.6731 15.468 18.8702C15.9061 18.9547 16.3502 18.9757 16.7492 18.8892C16.9816 18.8389 17.2108 18.9865 17.2611 19.2189C17.3115 19.4513 17.1639 19.6805 16.9315 19.7308C16.3826 19.8497 15.8141 19.814 15.3049 19.7157C13.9129 19.4471 12.8954 18.3589 12.4561 17.029C12.4104 16.8904 12.3705 16.7484 12.3368 16.604C11.8067 16.6515 11.2689 16.57 10.7868 16.4111C9.88596 16.1143 8.83301 15.4382 8.70148 14.1808C8.63473 13.5428 8.82487 12.7596 9.18903 12.2394C9.3254 12.0446 9.59387 11.9973 9.78867 12.1336ZM13.0673 15.5054C13.2117 15.4251 13.3463 15.3246 13.468 15.2025C13.5911 15.079 13.7817 14.8231 13.8821 14.5689C13.9926 14.2893 13.9285 14.2139 13.9037 14.1926C13.8603 14.1556 13.771 14.1209 13.6474 14.1294C13.5235 14.1379 13.4274 14.186 13.3805 14.2334C13.2217 14.3943 13.129 14.7025 13.0891 15.0662C13.0732 15.2106 13.0661 15.3576 13.0673 15.5054Z" fill="white"/>
  </g>
  <defs>
    <linearGradient id="paint0_linear_614_4563" x1="16" y1="0" x2="16" y2="31" gradientUnits="userSpaceOnUse">
      <stop stop-color="#F3AA14"/>
      <stop offset="1" stop-color="#FF3800"/>
    </linearGradient>
    <clipPath id="clip0_614_4563">
      <rect width="31" height="31" fill="white" transform="translate(0.5)"/>
    </clipPath>
  </defs>
</svg>
