<svg width="32" height="32" viewBox="0 0 32 32" fill="none" xmlns="http://www.w3.org/2000/svg">
  <g clip-path="url(#clip0_614_4579)">
    <path d="M0 7.11111C0 3.18375 3.18375 0 7.11111 0H24.8889C28.8162 0 32 3.18375 32 7.11111V24.8889C32 28.8162 28.8162 32 24.8889 32H7.11111C3.18375 32 0 28.8162 0 24.8889V7.11111Z" fill="url(#paint0_linear_614_4579)"/>
    <path fill-rule="evenodd" clip-rule="evenodd" d="M18.4508 13.0611L22.043 10.2205C22.4117 9.92885 22.7254 9.56383 22.9605 9.15668C22.9753 9.13103 22.9895 9.10521 23.0033 9.07923C25.248 11.0347 26.6666 13.9142 26.6666 17.125C26.6666 22.8731 22.1198 27.5593 16.4266 27.7833V27.7916H15.5733V27.7833C9.88001 27.5593 5.33325 22.8731 5.33325 17.125C5.33325 11.2339 9.85888 5.99994 15.7499 5.99994C16.2374 5.99994 18.3969 5.65538 18.867 5.71871C18.867 6.18747 18.867 6.49996 18.867 6.84803C18.6448 7.24453 18.4938 7.68379 18.428 8.13335L17.764 12.6646C17.708 13.0466 18.1479 13.3006 18.4508 13.0611ZM15.5733 26.4292V17.7928L7.95429 22.7451C10.2187 24.8749 12.4201 26.2943 15.5733 26.4292ZM7.49581 21.5879L15.1614 16.6053L14.5624 16.6534L7.56567 12.1055C6.68979 13.5741 6.18659 15.2908 6.18659 17.125C6.18659 18.9098 6.66309 20.1459 7.49581 21.5879ZM8.0342 10.9548L15.5733 15.8552V7.32073C12.4691 7.45353 9.73845 8.59085 8.0342 10.9548ZM24.4029 12.0535L17.4374 16.5811L16.7272 16.6053L24.4735 21.6404C25.3251 20.1866 25.8133 18.9315 25.8133 17.125C25.8133 15.2691 25.2981 13.5335 24.4029 12.0535ZM24.0106 22.7947L16.4266 17.8652L16.4266 26.4292C19.5582 26.2952 21.7812 24.9999 24.0106 22.7947Z" fill="black" fill-opacity="0.05"/>
    <path d="M18.764 11.7255L21.5136 9.55112C21.7965 9.32743 22.0395 9.04516 22.2215 8.73001C22.4374 8.40619 22.425 7.80309 22.425 6.87494C21.7188 6.46717 20.0358 6.50823 19.6171 7.23352C19.4351 7.54868 19.3246 7.90023 19.2723 8.25706L18.764 10.5937V11.7255Z" fill="black" fill-opacity="0.05"/>
    <path fill-rule="evenodd" clip-rule="evenodd" d="M18.4508 12.7483L22.043 9.90766C22.4117 9.61604 22.7254 9.25102 22.9605 8.84387C22.9753 8.81822 22.9895 8.7924 23.0033 8.76642C25.248 10.7219 26.6666 13.6014 26.6666 16.8122C26.6666 22.5603 22.1198 27.2465 16.4266 27.4704V27.4788H15.5733V27.4704C9.88001 27.2465 5.33325 22.5603 5.33325 16.8122C5.33325 10.9211 10.1089 6.14548 15.9999 6.14548C16.8352 6.14548 18.0871 5.53682 18.867 5.71839C18.867 5.96838 18.867 6.37463 18.867 6.53523C18.6448 6.93172 18.4938 7.37099 18.428 7.82054L17.764 12.3518C17.708 12.7338 18.1479 12.9878 18.4508 12.7483ZM15.5733 26.6164V17.48L7.95429 22.4323C9.65238 24.8587 12.4201 26.4815 15.5733 26.6164ZM7.49581 21.7126L15.1614 16.7299L7.56567 11.7927C6.68979 13.2613 6.18659 14.978 6.18659 16.8122C6.18659 18.597 6.66309 20.2706 7.49581 21.7126ZM8.0342 11.0795L15.5733 15.9799V7.00793C12.4691 7.14072 9.73845 8.71554 8.0342 11.0795ZM24.4029 11.7407L16.7272 16.7299L24.4735 21.765C25.3251 20.3112 25.8133 18.6187 25.8133 16.8122C25.8133 14.9563 25.2981 13.2207 24.4029 11.7407ZM24.0106 22.4819L16.4266 17.5523L16.4266 26.6164C19.5582 26.4824 22.3096 24.8808 24.0106 22.4819Z" fill="black" fill-opacity="0.05"/>
    <path d="M18.7837 11.3774L21.5333 9.20309C21.8162 8.97939 22.0592 8.69713 22.2411 8.38197C22.4799 7.96838 22.4259 7.28088 22.4259 6.83941C22.3053 6.54281 21.9975 6.48635 21.7051 6.3175C20.9988 5.90973 20.0679 6.1602 19.6492 6.88549C19.4672 7.20064 19.3442 7.5522 19.292 7.90903L18.7837 10.5582V11.3774Z" fill="black" fill-opacity="0.05"/>
    <path fill-rule="evenodd" clip-rule="evenodd" d="M18.4508 12.3735L22.043 9.53291C22.4117 9.24129 22.7254 8.87627 22.9605 8.46912C22.9753 8.44347 22.9895 8.41765 23.0033 8.39166C25.248 10.3472 26.6666 13.2266 26.6666 16.4374C26.6666 22.1855 22.1198 26.8717 16.4266 27.0957V27.1041H15.5733V27.0957C9.88001 26.8717 5.33325 22.1855 5.33325 16.4374C5.33325 10.5464 10.1089 5.77073 15.9999 5.77073C16.917 5.77073 18.0179 5.501 18.867 5.71865C18.867 5.96863 18.867 6.06238 18.867 6.16047C18.6448 6.55697 18.4938 6.99623 18.428 7.44578L17.764 11.977C17.708 12.3591 18.1479 12.6131 18.4508 12.3735ZM15.5733 26.2416V17.1052L7.95429 22.0575C9.65238 24.4839 12.4201 26.1067 15.5733 26.2416ZM7.49581 21.3378L15.1614 16.3552L7.56567 11.418C6.68979 12.8866 6.18659 14.6032 6.18659 16.4374C6.18659 18.2222 6.66309 19.8958 7.49581 21.3378ZM8.0342 10.7048L15.5733 15.6051V6.63317C12.4691 6.76596 9.73845 8.34079 8.0342 10.7048ZM24.4029 11.3659L16.7272 16.3552L24.4735 21.3903C25.3251 19.9365 25.8133 18.2439 25.8133 16.4374C25.8133 14.5815 25.2981 12.846 24.4029 11.3659ZM24.0106 22.1072L16.4266 17.1776L16.4266 26.2416C19.5582 26.1077 22.3096 24.506 24.0106 22.1072Z" fill="black" fill-opacity="0.05"/>
    <path d="M18.764 11.0379L21.5136 8.86356C21.7965 8.63986 22.0395 8.3576 22.2215 8.04245C22.421 7.69687 22.4247 7.28113 22.4247 6.87488C22.3359 6.47906 22.0552 6.19146 21.6854 5.97798C20.9791 5.5702 20.0482 5.82067 19.6295 6.54596C19.4475 6.86112 19.3246 7.21267 19.2723 7.5695L18.764 10.5936V11.0379Z" fill="black" fill-opacity="0.05"/>
    <path fill-rule="evenodd" clip-rule="evenodd" d="M18.4508 11.9358L22.043 9.09518C22.4117 8.80357 22.7254 8.43855 22.9605 8.03139C22.9753 8.00575 22.9895 7.97992 23.0033 7.95394C25.248 9.90944 26.6666 12.7889 26.6666 15.9997C26.6666 21.7478 22.1198 26.434 16.4266 26.658V26.6663H15.5733V26.658C9.88001 26.434 5.33325 21.7478 5.33325 15.9997C5.33325 10.1086 10.1089 5.33301 15.9999 5.33301C16.9932 5.33301 17.9547 5.46877 18.867 5.72275C18.6448 6.11924 18.4938 6.55851 18.428 7.00806L17.764 11.5393C17.708 11.9214 18.1479 12.1753 18.4508 11.9358ZM15.5733 25.8039V16.6675L7.95429 21.6198C9.65238 24.0462 12.4201 25.669 15.5733 25.8039ZM7.49581 20.9001L15.1614 15.9175L7.56567 10.9803C6.68979 12.4488 6.18659 14.1655 6.18659 15.9997C6.18659 17.7845 6.66309 19.4581 7.49581 20.9001ZM8.0342 10.267L15.5733 15.1674V6.19545C12.4691 6.32824 9.73845 7.90307 8.0342 10.267ZM24.4029 10.9282L16.7272 15.9175L24.4735 20.9526C25.3251 19.4988 25.8133 17.8062 25.8133 15.9997C25.8133 14.1438 25.2981 12.4082 24.4029 10.9282ZM24.0106 21.6694L16.4266 16.7398L16.4266 25.8039C19.5582 25.6699 22.3096 24.0683 24.0106 21.6694Z" fill="white"/>
    <path d="M18.764 10.6002L21.5136 8.42584C21.7965 8.20214 22.0395 7.91988 22.2215 7.60472C22.6402 6.87943 22.3917 5.94803 21.6854 5.54025C20.9791 5.13248 20.0482 5.38294 19.6295 6.10824C19.4475 6.42339 19.3246 6.77495 19.2723 7.13178L18.764 10.6002Z" fill="white"/>
  </g>
  <defs>
    <linearGradient id="paint0_linear_614_4579" x1="16" y1="0" x2="16" y2="32" gradientUnits="userSpaceOnUse">
      <stop stop-color="#F56063"/>
      <stop offset="1" stop-color="#9806F5"/>
    </linearGradient>
    <clipPath id="clip0_614_4579">
      <rect width="32" height="32" fill="white"/>
    </clipPath>
  </defs>
</svg>
