<svg width="32" height="32" viewBox="0 0 32 32" fill="none" xmlns="http://www.w3.org/2000/svg">
<path fill-rule="evenodd" clip-rule="evenodd" d="M15.9999 10.6667C15.2635 10.6667 14.6666 10.0697 14.6666 9.33333C14.6666 8.59695 15.2635 8 15.9999 8C16.7363 8 17.3333 8.59695 17.3333 9.33333C17.3333 10.0697 16.7363 10.6667 15.9999 10.6667ZM15.9999 17.3333C15.2635 17.3333 14.6666 16.7364 14.6666 16C14.6666 15.2636 15.2635 14.6667 15.9999 14.6667C16.7363 14.6667 17.3333 15.2636 17.3333 16C17.3333 16.7364 16.7363 17.3333 15.9999 17.3333ZM14.6666 22.6667C14.6666 23.403 15.2635 24 15.9999 24C16.7363 24 17.3333 23.403 17.3333 22.6667C17.3333 21.9303 16.7363 21.3333 15.9999 21.3333C15.2635 21.3333 14.6666 21.9303 14.6666 22.6667Z" fill="white"/>
</svg>
