<?xml version="1.0" encoding="UTF-8"?>
<svg xmlns="http://www.w3.org/2000/svg" xmlns:xlink="http://www.w3.org/1999/xlink" width="512pt" height="512pt" viewBox="0 0 512 512" version="1.1">
<g id="surface1">
<path style=" stroke:none;fill-rule:nonzero;fill:rgb(0%,0%,0%);fill-opacity:1;" d="M 192 448 L 384 448 C 401.707031 448 416.851562 437.332031 423.253906 421.972656 L 487.679688 271.574219 C 489.601562 266.667969 490.667969 261.546875 490.667969 256 L 490.667969 213.332031 C 490.667969 189.867188 471.464844 170.667969 448 170.667969 L 313.386719 170.667969 L 333.652344 73.171875 L 334.292969 66.347656 C 334.292969 57.601562 330.667969 49.492188 324.90625 43.734375 L 302.292969 21.332031 L 161.707031 161.921875 C 154.027344 169.601562 149.332031 180.265625 149.332031 192 L 149.332031 405.332031 C 149.332031 428.800781 168.535156 448 192 448 Z M 192 192 L 284.585938 99.414062 L 256 213.332031 L 448 213.332031 L 448 256 L 384 405.332031 L 192 405.332031 Z M 21.332031 192 L 106.667969 192 L 106.667969 448 L 21.332031 448 Z M 21.332031 192 "/>
</g>
</svg>
